<svg width="100" height="34" viewBox="0 0 100 34" fill="none" xmlns="http://www.w3.org/2000/svg">
<path d="M34.2455 12.4729C32.4737 12.4729 30.4958 13.1554 30.0813 15.4021C30.0372 15.6407 30.1952 15.7546 30.3478 15.7895L32.1638 16.0072C32.3319 15.9987 32.4458 15.8158 32.4783 15.6438C32.6333 14.8707 33.2693 14.5058 33.9798 14.5058C34.3632 14.5058 34.794 14.6375 35.021 14.99C35.2813 15.3828 35.2627 15.9165 35.2627 16.3698V16.6363C34.1835 16.7602 32.7627 16.8354 31.7524 17.2901C30.5865 17.8084 29.7676 18.8628 29.7676 20.413C29.7676 22.3994 30.9847 23.3911 32.5519 23.3911C33.8752 23.3911 34.6065 23.0804 35.6268 22.0113C35.9654 22.5149 36.0738 22.7434 36.6921 23.2702C36.7604 23.3092 36.8393 23.3256 36.9176 23.3169C36.9958 23.3083 37.0692 23.2751 37.1275 23.2222V23.2462C37.4993 22.9069 38.1757 22.2902 38.556 21.9633C38.7079 21.8362 38.6746 21.627 38.556 21.455C38.2159 20.9732 37.8541 20.5843 37.8541 19.6879V16.7099C37.8541 15.4486 37.9611 14.2858 37.0554 13.4173C36.3403 12.7146 35.1504 12.4729 34.2455 12.4729ZM58.6493 12.4729C56.8767 12.4729 54.9004 13.1554 54.4851 15.4021C54.441 15.6407 54.5982 15.7546 54.7516 15.7895L56.5676 16.0072C56.7357 15.9987 56.8504 15.8158 56.8821 15.6438C57.0379 14.8707 57.6731 14.5058 58.3836 14.5058C58.7678 14.5058 59.1978 14.6375 59.4248 14.99C59.6843 15.3828 59.6425 15.9165 59.6425 16.3698V16.6363C58.5633 16.7602 57.1672 16.8354 56.1562 17.2901C54.9895 17.8084 54.1714 18.8628 54.1714 20.413C54.1714 22.3994 55.3892 23.3911 56.9557 23.3911C58.2774 23.3911 59.0088 23.0804 60.0306 22.0113C60.3684 22.5149 60.4776 22.7434 61.0959 23.2702C61.2353 23.3446 61.4081 23.3369 61.5313 23.2222V23.2462C61.9031 22.9069 62.5795 22.2902 62.9598 21.9633C63.1109 21.8362 63.0761 21.627 62.9598 21.455C62.6197 20.9732 62.2579 20.5843 62.2579 19.6879V16.7099C62.2579 15.4486 62.3393 14.2858 61.4352 13.4173C60.7193 12.7146 59.5542 12.4729 58.6493 12.4729ZM44.922 12.5697C43.7769 12.5697 42.9278 13.1477 42.4769 14.3857H42.4529V13.1028C42.4468 13.0148 42.409 12.932 42.3467 12.8696C42.2843 12.8073 42.2015 12.7696 42.1136 12.7634H40.3704C40.2745 12.7648 40.1829 12.8036 40.1151 12.8714C40.0472 12.9392 40.0085 13.0308 40.0071 13.1268V22.9317C40.0154 23.0189 40.0538 23.1005 40.1157 23.1624C40.1776 23.2243 40.2592 23.2627 40.3464 23.271H42.2104C42.3065 23.27 42.3983 23.2314 42.4662 23.1635C42.5341 23.0955 42.5728 23.0037 42.5738 22.9077V17.7023C42.5738 16.5673 42.5188 15.0148 43.8567 15.0148C45.1776 15.0148 44.9948 16.6099 44.9948 17.7023V22.9077C44.9948 23.0928 45.1458 23.2586 45.3341 23.271H47.1981C47.2941 23.27 47.386 23.2314 47.4539 23.1635C47.5218 23.0955 47.5604 23.0037 47.5614 22.9077V17.7023C47.5614 17.1453 47.539 16.3341 47.7311 15.8383C47.9225 15.3425 48.3927 15.0155 48.8452 15.0155C49.3844 15.0155 49.7957 15.2038 49.9344 15.8631C50.0212 16.2551 49.9824 17.2909 49.9824 17.7031V22.9084C49.9824 23.0936 50.1335 23.2594 50.3218 23.2718H52.1858C52.2818 23.2708 52.3736 23.2322 52.4416 23.1642C52.5095 23.0963 52.5481 23.0045 52.5491 22.9084V16.7106C52.5491 15.6578 52.6552 14.4624 52.0649 13.6358C51.5435 12.8936 50.6913 12.5705 49.9104 12.5705C48.8149 12.5705 47.7962 13.1485 47.3445 14.3865C46.8223 13.1485 46.0864 12.5697 44.922 12.5697ZM76.6136 12.5697C73.9199 12.5697 72.4254 14.9381 72.4254 17.9928C72.4254 21.0266 73.9036 23.4639 76.6136 23.4639C79.2205 23.4639 80.8746 21.0824 80.8746 18.0889C80.8746 14.9954 79.3762 12.5697 76.6136 12.5697ZM87.2412 12.5697C85.9544 12.5697 85.2192 13.2135 84.6994 14.5546H84.6754V13.0532C84.642 12.9013 84.4987 12.796 84.336 12.7867H82.6169C82.5281 12.7847 82.4417 12.8158 82.3746 12.8739C82.3074 12.932 82.2643 13.013 82.2536 13.1012V22.9061C82.2553 22.9979 82.2909 23.0857 82.3536 23.1528C82.4162 23.2199 82.5015 23.2614 82.5929 23.2695H84.4329C84.5288 23.2681 84.6204 23.2293 84.6882 23.1615C84.7561 23.0936 84.7948 23.002 84.7962 22.9061V17.6287C84.7962 16.9671 84.852 16.3636 85.1108 15.7647C85.3199 15.2898 85.7236 14.99 86.176 14.99C87.4605 14.99 87.3381 16.5557 87.3381 17.6287V22.9549C87.35 23.0383 87.3902 23.1151 87.452 23.1723C87.5138 23.2296 87.5933 23.2639 87.6774 23.2695H89.5414C89.7242 23.2695 89.883 23.13 89.9047 22.9549V16.7811C89.9047 15.8321 89.9071 14.5135 89.4205 13.7303C88.8991 12.8851 88.0741 12.5697 87.2412 12.5697ZM64.8711 12.7394C64.6821 12.7394 64.5325 12.8897 64.5318 13.1028V14.5066C64.5325 14.7165 64.6774 14.8683 64.8711 14.8699H68.0668L64.4109 20.2689C64.1878 20.6168 64.1692 21.0111 64.1692 21.2374V22.6659C64.1692 22.872 64.3931 23.0959 64.6046 22.9805C66.6878 21.8432 69.1848 21.9439 71.0689 22.9565C71.2974 23.0812 71.5291 22.8472 71.5291 22.6419V21.1405C71.5238 21.0298 71.4897 20.9224 71.4302 20.829C71.3707 20.7355 71.2878 20.6591 71.1897 20.6075C70.1206 19.9924 68.8795 19.8041 67.7035 19.8328L70.8752 15.1844C71.1688 14.7669 71.3331 14.5151 71.3354 14.3129V13.1028C71.3354 12.8943 71.1928 12.7394 70.9961 12.7394H64.8711ZM76.6136 14.5794C77.2039 14.5794 77.6393 14.8428 77.8485 15.5238C78.0902 16.3086 78.115 17.2886 78.115 18.1144C78.115 19.3726 78.0561 21.455 76.6136 21.455C75.1548 21.455 75.161 18.8768 75.161 17.6783C75.161 16.4829 75.2408 14.5794 76.6136 14.5794ZM35.2379 18.1625V18.5739C35.2379 19.3184 35.265 19.9451 34.8986 20.6075C34.6026 21.1459 34.1378 21.4791 33.6156 21.4791C32.9029 21.4791 32.4776 20.9011 32.4776 20.0753C32.4783 18.4468 33.893 18.1625 35.2379 18.1625ZM59.6417 18.1625V18.5739C59.6417 19.3184 59.6688 19.9451 59.3024 20.6075C59.0064 21.1459 58.5439 21.4791 58.0194 21.4791C57.3059 21.4791 56.8814 20.9011 56.8814 20.0753C56.8821 18.4468 58.2952 18.1625 59.6417 18.1625Z" fill="#223C4D"/>
<path d="M71.724 23.5854V24.9892H72.6684V23.5854H71.724ZM44.3422 23.8272V33.8257H45.2137V32.9302C45.3997 33.285 45.6112 33.5507 45.8676 33.7289C46.1233 33.9071 46.4169 33.9954 46.7392 33.9954C47.3791 33.9954 47.9315 33.6685 48.4095 33.003C48.8875 32.3375 49.1362 31.373 49.1362 30.1458C49.1362 29.3424 49.0331 28.6769 48.8216 28.1122C48.6101 27.5489 48.3274 27.1298 47.9741 26.8532C47.6208 26.5767 47.2195 26.4178 46.788 26.4178C46.488 26.4147 46.1936 26.4986 45.9404 26.6596C45.6886 26.8207 45.4849 27.0833 45.2866 27.4103V23.8272H44.3422ZM53.3003 26.1761C52.6433 26.1761 52.122 26.3706 51.7509 26.7572C51.3798 27.143 51.1938 27.6411 51.1938 28.2586C51.1938 28.6173 51.2744 28.9202 51.4115 29.203C51.5487 29.4857 51.7462 29.7127 51.9926 29.8809C52.2405 30.049 52.7348 30.2698 53.4692 30.5099C53.9774 30.6734 54.2811 30.8128 54.4136 30.9213C54.6057 31.0801 54.7041 31.2885 54.7041 31.5752C54.7041 31.9068 54.5894 32.1833 54.3648 32.3979C54.1409 32.6141 53.8294 32.7125 53.4204 32.7125C53.0113 32.7125 52.6743 32.5978 52.428 32.3491C52.1816 32.1004 52.0484 31.7224 51.9926 31.2111L51.0482 31.4047C51.2612 32.9581 52.036 33.7297 53.3724 33.7289C54.0851 33.7289 54.6305 33.5267 55.0427 33.0998C55.4548 32.673 55.6717 32.0966 55.6717 31.4047C55.6717 31.0313 55.6059 30.7075 55.4781 30.4363C55.3502 30.1652 55.1744 29.9645 54.945 29.8073C54.715 29.6508 54.2021 29.4416 53.4196 29.1782C52.851 28.9791 52.5178 28.8334 52.4032 28.7428C52.2103 28.5894 52.1127 28.3802 52.1127 28.1137C52.1127 27.841 52.2025 27.6101 52.4032 27.4358C52.6038 27.2615 52.9129 27.1693 53.3236 27.1693C54.0456 27.1693 54.4492 27.566 54.5337 28.3554L55.454 28.2098C55.3905 27.7101 55.2813 27.3157 55.1147 27.0477C54.9481 26.7796 54.7018 26.5534 54.388 26.3938C54.075 26.235 53.7148 26.1761 53.3003 26.1761ZM59.0867 26.1761C58.3298 26.1761 57.6914 26.4876 57.1979 27.1445C56.7044 27.8015 56.4713 28.7529 56.4713 30.0017C56.4713 31.2049 56.7091 32.1477 57.1979 32.7861C57.6868 33.4237 58.3205 33.7305 59.1107 33.7305C59.739 33.7305 60.2597 33.5422 60.6842 33.1494C61.1095 32.7566 61.4179 32.1787 61.5798 31.4063L60.6114 31.2366C60.3333 32.2259 59.8204 32.7117 59.11 32.7132C58.6575 32.7132 58.288 32.5211 57.9719 32.1082C57.6558 31.6945 57.4768 31.0809 57.4389 30.2682H61.603V29.9289C61.603 28.7071 61.3598 27.7899 60.8763 27.1445C60.3945 26.4992 59.808 26.1761 59.0867 26.1761ZM64.8243 26.1761C64.5981 26.1761 64.4006 26.2528 64.2193 26.4178C64.038 26.5829 63.8319 26.9253 63.6142 27.4343V26.3202H62.7667V33.5592H63.711V29.7832C63.711 29.2564 63.7606 28.7498 63.8807 28.2818C63.9489 28.0138 64.0775 27.8023 64.2441 27.6527C64.4106 27.5032 64.6004 27.4351 64.8011 27.4351C65.0234 27.4351 65.2442 27.5241 65.479 27.7016L65.7935 26.5635C65.4635 26.3001 65.1404 26.1761 64.8243 26.1761ZM76.3964 26.1761C75.6488 26.1761 75.0329 26.4907 74.5564 27.1205C74.0815 27.7496 73.8297 28.6948 73.8297 29.9529C73.8297 31.201 74.0838 32.1469 74.5564 32.7853C75.0282 33.4229 75.6186 33.7297 76.3476 33.7297C76.9495 33.7297 77.467 33.5058 77.897 33.0518C78.327 32.5978 78.5888 31.93 78.6958 31.067L77.7754 30.9213C77.7072 31.5388 77.5461 31.9827 77.2912 32.2771C77.0363 32.5699 76.7295 32.7125 76.3708 32.7125C75.9137 32.7125 75.5248 32.4994 75.2327 32.0586C74.9407 31.6178 74.7973 30.9128 74.7973 29.9281C74.7973 28.9737 74.9515 28.2849 75.2575 27.8457C75.5635 27.4064 75.9532 27.1678 76.4196 27.1678C76.7311 27.1678 76.9968 27.2886 77.2184 27.5311C77.4415 27.7728 77.5895 28.1571 77.6785 28.6452L78.5989 28.4515C78.4881 27.6892 78.2433 27.1135 77.8482 26.7324C77.4531 26.3504 76.9735 26.1761 76.3964 26.1761ZM81.7954 26.1761C81.0385 26.1761 80.4002 26.4876 79.9067 27.1445C79.4132 27.8015 79.18 28.7529 79.18 30.0017C79.18 31.2049 79.4178 32.1477 79.9067 32.7861C80.3963 33.4237 81.0292 33.7305 81.8194 33.7305C82.4462 33.7305 82.9676 33.5422 83.3929 33.1494C83.8175 32.7566 84.1258 32.1787 84.2885 31.4063L83.3201 31.2366C83.042 32.2259 82.5516 32.7117 81.8435 32.7132C81.391 32.7132 80.9975 32.5211 80.6814 32.1082C80.3653 31.6945 80.1871 31.0809 80.1484 30.2682H84.3125V29.9289C84.3125 28.7071 84.0692 27.7899 83.5858 27.1445C83.1055 26.4992 82.5175 26.1761 81.7954 26.1761ZM87.3882 26.1761C86.7296 26.1761 86.2098 26.3706 85.8387 26.7572C85.4668 27.143 85.2817 27.6411 85.2817 28.2586C85.2817 28.6173 85.3382 28.9202 85.4754 29.203C85.6117 29.485 85.8085 29.7127 86.0564 29.8809C86.3028 30.049 86.7994 30.2698 87.533 30.5099C88.0397 30.6734 88.369 30.8128 88.5014 30.9213C88.6936 31.0801 88.792 31.2885 88.792 31.5752C88.792 31.9068 88.6773 32.1833 88.4526 32.3979C88.2295 32.6141 87.9173 32.7125 87.5082 32.7125C87.0984 32.7125 86.7622 32.5978 86.5158 32.3491C86.2695 32.1004 86.1106 31.7224 86.0556 31.2111L85.1113 31.4047C85.3243 32.9581 86.0975 33.7297 87.4354 33.7289C88.1489 33.7289 88.7176 33.5267 89.1305 33.0998C89.5434 32.673 89.7596 32.0966 89.7596 31.4047C89.7596 31.0313 89.6937 30.7075 89.5659 30.4363C89.4381 30.1652 89.239 29.9645 89.0089 29.8073C88.7796 29.6508 88.2899 29.4416 87.5075 29.1782C86.9388 28.9791 86.5817 28.8334 86.4662 28.7428C86.2733 28.5894 86.1757 28.3802 86.1757 28.1137C86.1757 27.841 86.2896 27.6101 86.4903 27.4358C86.6909 27.2615 87.0016 27.1693 87.4106 27.1693C88.1327 27.1693 88.5363 27.566 88.6208 28.3554L89.5411 28.2098C89.4768 27.7101 89.3691 27.3157 89.2018 27.0477C89.0241 26.7673 88.7727 26.5411 88.4751 26.3938C88.1644 26.235 87.8019 26.1761 87.3882 26.1761ZM65.7927 26.321L67.8992 33.56H68.7948L70.9013 26.321H69.9329L68.6979 30.7516C68.5484 31.287 68.4167 31.7495 68.3346 32.1314C68.2316 31.6503 68.1332 31.1452 67.9953 30.6548L66.7852 26.321H65.7927ZM71.724 26.321V33.56H72.6684V26.321H71.724ZM40.687 26.4178C39.9379 26.4178 39.3351 26.7541 38.8471 27.4103C38.3582 28.0672 38.0964 29.0186 38.0964 30.2674C38.0964 31.4706 38.3381 32.3894 38.823 33.027C39.308 33.6646 39.9534 33.9954 40.7358 33.9954C41.3572 33.9954 41.8646 33.7831 42.2853 33.3904C42.7052 32.9976 42.9957 32.4196 43.1568 31.6472L42.2125 31.5016C41.9374 32.4909 41.4377 32.9767 40.7358 32.9782C40.2873 32.9782 39.9108 32.7861 39.5978 32.3731C39.2848 31.9594 39.1027 31.3459 39.0648 30.5332H43.1801L43.2041 30.1938C43.2041 28.9721 42.9562 28.0308 42.4774 27.3855C41.9986 26.7401 41.4005 26.4178 40.687 26.4178ZM30.0586 26.5875L31.7537 33.8265H32.7461L33.8602 28.2578L34.0538 29.4927L34.9494 33.8265H35.9178L37.6369 26.5875H36.7414L35.797 30.7757L35.4824 32.1795L35.1919 30.7757L34.3692 26.5875H33.4008L32.5292 30.8245L32.2387 32.3259L31.8993 30.7764L31.0278 26.5883H30.0586V26.5875ZM90.3174 26.6603V26.9997H91.2378V29.4207H91.6011V26.9997H92.5215V26.6603H90.3174ZM92.884 26.6603V29.4199H93.2234V27.0717L94.0221 29.4199H94.3614L95.1602 27.1197V29.4199H95.5235V26.6603H95.0153L94.3614 28.5971C94.2956 28.7908 94.2483 28.931 94.2158 29.0325L94.0702 28.6212L93.4163 26.6603H92.884ZM59.0619 27.1685C59.5322 27.1685 59.9196 27.3963 60.224 27.8464C60.4332 28.1548 60.5688 28.6243 60.6114 29.2502H57.4885C57.5179 28.615 57.6976 28.1246 57.9967 27.7488C58.2957 27.3731 58.6397 27.1685 59.0619 27.1685ZM81.7714 27.1685C82.2401 27.1685 82.629 27.3963 82.9335 27.8464C83.1427 28.1548 83.2783 28.6243 83.3209 29.2502H80.1979C80.2274 28.615 80.4071 28.1246 80.7062 27.7488C81.0044 27.3746 81.3484 27.1685 81.7714 27.1685ZM40.687 27.4351C41.1519 27.4351 41.5253 27.6628 41.8251 28.1129C42.032 28.4213 42.1699 28.8908 42.2125 29.5167H39.1376C39.167 28.8815 39.3243 28.367 39.6218 27.9913C39.917 27.6163 40.2679 27.4351 40.687 27.4351ZM46.6911 27.4351C47.111 27.4351 47.4682 27.6682 47.7564 28.1129C48.0446 28.5584 48.1678 29.2448 48.1678 30.1954C48.1678 31.1212 48.0314 31.8115 47.7324 32.2779C47.4333 32.7442 47.077 32.9797 46.6911 32.9797C46.4076 32.9797 46.1496 32.8845 45.9164 32.6892C45.6824 32.494 45.5112 32.2143 45.3834 31.8417C45.2556 31.469 45.1897 30.8957 45.1897 30.1466C45.1897 29.2642 45.347 28.6033 45.6499 28.137C45.9528 27.6706 46.3053 27.4351 46.6911 27.4351Z" fill="#223C4D"/>
<path d="M16.4876 19.7599L12.8805 21.3093L16.2211 22.7379L20.0947 21.3093L16.4876 19.7599ZM11.0645 21.6967L10.9437 28.6692L16.2211 30.9933V23.7543L11.0645 21.6967ZM21.9107 21.6967L17.1415 23.5126V30.3395L21.9107 28.4027V21.6967ZM27.6002 0.00439453L23.9683 1.55384L27.3337 2.98243L31.2074 1.55384L27.6002 0.00439453ZM22.5645 2.06284V9.03535L27.0672 10.3431L27.2129 3.99964L22.5645 2.06284ZM32.636 2.4502L28.375 4.26615V11.1178L32.636 9.181V2.4502ZM10.5439 9.81782L6.93681 11.3673L10.2774 12.7959L14.151 11.3673L10.5439 9.81782ZM5.12086 11.7546L5 18.7271L10.2774 21.0513V13.8123L5.12086 11.7546ZM15.967 11.7546L11.1978 13.5706V20.3974L15.967 18.4606V11.7546ZM22.1648 9.56061L18.5577 11.1101L21.8983 12.5387L25.7719 11.1101L22.1648 9.56061ZM16.7417 11.4974L16.6209 18.4699L21.8983 20.7941V13.5559L16.7417 11.4974ZM27.5879 11.4974L22.8186 13.3134V20.1402L27.5879 18.2034V11.4974ZM38.9507 0.00439453L35.3436 1.55384L38.6842 2.98243L42.5578 1.55384L38.9507 0.00439453ZM33.5277 1.9412L33.4068 8.91372L38.6842 11.2379V3.99964L33.5277 1.9412ZM44.3738 1.9412L39.6046 3.75716V10.584L44.3738 8.64721V1.9412Z" fill="#223C4D"/>
</svg>
