<svg width="170" height="34" viewBox="0 0 170 34" fill="none" xmlns="http://www.w3.org/2000/svg">
<g clip-path="url(#clip0_1351_6077)">
<path d="M53.8152 15.7835C53.4612 15.4295 48.9181 9.70631 48.151 8.76228C47.325 7.81825 46.971 7.99525 46.44 8.05426C45.909 8.11326 40.1858 9.11629 39.5368 9.17529C38.8878 9.29329 38.4747 9.5293 38.8878 10.1193C39.2418 10.6503 43.0179 15.9605 43.8439 17.1995L28.7984 20.7987L16.8801 0.797029C16.4081 0.0890066 16.2901 -0.147001 15.228 -0.0879989C14.166 -0.028997 5.84673 0.679025 5.25671 0.679025C4.66669 0.738027 4.01767 0.974034 4.60769 2.39008C5.19771 3.80612 14.638 24.1028 14.874 24.6928C15.11 25.2828 15.818 26.2268 17.4111 25.8728C19.0631 25.4598 24.7273 23.9848 27.8544 23.1587C29.5065 26.1088 32.8106 32.127 33.4596 33.012C34.2856 34.1921 34.8756 33.9561 36.1147 33.6021C37.1177 33.307 51.5732 28.1149 52.2222 27.8199C52.8712 27.5249 53.2842 27.3479 52.8122 26.6988C52.4582 26.2268 48.6821 21.0937 46.676 18.4386C48.033 18.0846 52.9302 16.7865 53.4612 16.6095C54.0512 16.4325 54.1692 16.1375 53.8152 15.7835ZM26.4974 21.3887C26.3204 21.4477 17.8831 23.4537 17.4701 23.5717C16.9981 23.6897 16.9981 23.6307 16.9981 23.4537C16.8801 23.2767 6.96777 2.74409 6.79076 2.50808C6.67276 2.27207 6.67276 2.03607 6.79076 2.03607C6.90876 2.03607 14.756 1.32805 14.992 1.32805C15.287 1.32805 15.228 1.38705 15.346 1.56405C15.346 1.56405 26.3794 20.6216 26.5564 20.9167C26.7924 21.2117 26.6744 21.3297 26.4974 21.3887ZM50.2161 25.8138C50.3341 26.0498 50.5111 26.1678 50.0391 26.2858C49.6261 26.4628 35.8197 31.124 35.5247 31.242C35.2296 31.36 35.0526 31.419 34.6986 30.888C34.3446 30.357 29.8605 22.6277 29.8605 22.6277L44.5519 18.7926C44.9059 18.6746 45.024 18.6156 45.26 18.9696C45.496 19.3826 50.0981 25.6368 50.2161 25.8138ZM51.1601 15.4295C50.8061 15.4885 45.437 16.8455 45.437 16.8455L41.0118 10.8273C40.8938 10.6503 40.7758 10.4733 41.0708 10.4143C41.3658 10.3553 46.381 9.4703 46.617 9.4113C46.853 9.3523 47.03 9.29329 47.325 9.70631C47.62 10.0603 51.3961 14.8985 51.5732 15.0755C51.7502 15.2525 51.5142 15.3705 51.1601 15.4295Z" fill="#223C4D"/>
<path d="M67.8914 4.89673V25.0277H75.1752V28.495H64.0137V4.89673H67.8914ZM88.8521 14.9055V12.7832H92.5377V28.5037H88.8696V26.3727C88.363 27.1587 87.6643 27.7701 86.756 28.2068C85.8477 28.6697 84.922 28.888 84.0049 28.888C82.8084 28.888 81.7167 28.6697 80.7298 28.233C79.7652 27.8149 78.897 27.2024 78.1796 26.4338C77.4684 25.6713 76.9056 24.7827 76.5202 23.8138C76.1234 22.8013 75.9247 21.7221 75.9351 20.6347C75.9351 19.5343 76.1359 18.4775 76.529 17.4906C76.9097 16.5089 77.4727 15.608 78.1883 14.8356C78.8992 14.0629 79.7613 13.4445 80.7211 13.019C81.7167 12.5823 82.8172 12.364 83.9962 12.364C84.9132 12.364 85.8303 12.5911 86.7386 13.0365C87.6469 13.4906 88.3455 14.102 88.8346 14.888L88.8521 14.9055ZM88.5202 22.5649C88.7503 21.9503 88.8686 21.2996 88.8696 20.6435C88.8696 19.9622 88.7473 19.3334 88.5202 18.7221C88.3111 18.1338 87.9909 17.5912 87.577 17.1238C87.164 16.6741 86.6651 16.3118 86.1097 16.0583C85.5126 15.7843 84.8628 15.6442 84.2058 15.6478C83.5071 15.6478 82.8783 15.7963 82.3193 16.067C81.7718 16.3214 81.2793 16.6804 80.8696 17.1238C80.4567 17.589 80.1419 18.1325 79.9438 18.7221C79.7272 19.3394 79.6179 19.9892 79.6207 20.6435C79.6207 21.3159 79.7255 21.9535 79.9438 22.5649C80.1534 23.1762 80.4678 23.7002 80.8696 24.1369C81.2757 24.5932 81.7685 24.9643 82.3193 25.2286C82.8783 25.4906 83.5071 25.6304 84.2058 25.6304C84.9045 25.6304 85.5421 25.4993 86.1097 25.2286C86.6668 24.9701 87.1658 24.6018 87.577 24.1456C87.988 23.686 88.3081 23.1526 88.5202 22.5736V22.5649ZM95.4372 28.5037V12.7832H105.411V16.3989H99.1054V28.495H95.4372V28.5037ZM118.73 14.9055V12.7832H122.398V28.5037H118.73V26.3727C118.241 27.1587 117.533 27.7701 116.634 28.2068C115.717 28.6697 114.8 28.888 113.874 28.888C112.677 28.888 111.586 28.6697 110.599 28.233C109.634 27.8149 108.766 27.2024 108.049 26.4338C107.337 25.6713 106.775 24.7827 106.389 23.8138C105.995 22.8008 105.8 21.7215 105.813 20.6347C105.813 19.5343 106.005 18.4775 106.398 17.4906C106.779 16.5089 107.342 15.608 108.057 14.8356C108.768 14.0629 109.63 13.4445 110.59 13.019C111.586 12.5823 112.686 12.364 113.865 12.364C114.782 12.364 115.699 12.5911 116.608 13.0365C117.516 13.4906 118.223 14.102 118.704 14.888L118.73 14.9055ZM118.398 22.5649C118.622 21.9493 118.734 21.2986 118.73 20.6435C118.73 19.9622 118.616 19.3334 118.398 18.7221C118.191 18.1345 117.874 17.5919 117.463 17.1238C117.045 16.6722 116.54 16.3098 115.979 16.0583C115.411 15.7963 114.773 15.6478 114.084 15.6478C113.385 15.6478 112.756 15.7963 112.188 16.067C111.641 16.3214 111.148 16.6804 110.739 17.1238C110.326 17.589 110.011 18.1325 109.813 18.7221C109.599 19.3399 109.493 19.9897 109.498 20.6435C109.498 21.3159 109.603 21.9535 109.813 22.5649C110.031 23.1762 110.337 23.7002 110.739 24.1369C111.145 24.5932 111.638 24.9643 112.188 25.2286C112.756 25.4906 113.385 25.6304 114.084 25.6304C114.782 25.6304 115.411 25.4993 115.987 25.2286C116.551 24.9721 117.056 24.6037 117.472 24.1456C117.88 23.6853 118.197 23.1519 118.407 22.5736L118.398 22.5649ZM137.14 12.7832H140.87L134.843 28.5037H130.215L124.188 12.7832H127.9L132.529 24.8181L137.14 12.7919V12.7832ZM148.878 12.3814C153.883 12.3814 157.298 16.8181 156.651 22.0059H144.45C144.45 23.3509 145.83 25.971 149.079 25.971C151.874 25.971 153.752 23.5256 153.752 23.5256L156.232 25.4469C154.005 27.805 152.188 28.8967 149.332 28.8967C144.249 28.8967 140.808 25.6653 140.808 20.626C140.808 16.0583 144.372 12.364 148.87 12.364L148.878 12.3814ZM144.468 19.281H153.289C153.254 18.9753 152.765 15.2985 148.852 15.2985C144.922 15.2985 144.503 18.9841 144.468 19.281ZM159.053 28.4775V4.89673H162.721V28.495H159.053V28.4775Z" fill="#223C4D"/>
</g>
<defs>
<clipPath id="clip0_1351_6077">
<rect width="170" height="34" fill="white"/>
</clipPath>
</defs>
</svg>
