<svg width="84" height="38" viewBox="0 0 84 38" fill="none" xmlns="http://www.w3.org/2000/svg">
<path fill-rule="evenodd" clip-rule="evenodd" d="M5 34.6203H7.43336V25.0355L11.1856 33.3943C11.6311 34.3968 12.226 34.7498 13.4146 34.7498C14.6036 34.7498 15.1981 34.3968 15.6435 33.3943L19.3958 25.0355V34.6203H21.8104V25.0538C21.8104 24.1254 21.4386 23.6787 20.6772 23.4373C18.8383 22.8615 17.5935 23.3632 17.0365 24.608L13.3588 32.8369L9.79263 24.608C9.25391 23.3632 7.99081 22.8615 6.15195 23.4373C5.37177 23.6787 5.00042 24.125 5.00042 25.0538V34.6203H5ZM23.8349 26.8182H26.2496V32.0937C26.2313 32.3906 26.3424 33.0596 27.68 33.0783C28.3486 33.0962 32.8994 33.0783 32.9364 33.0783V26.7994H35.3698C35.3881 26.7994 35.3698 35.3622 35.3698 35.3997C35.3881 37.5171 32.7508 37.9625 31.5435 38H23.8907V36.3655C23.8907 36.3655 31.5251 36.3843 31.5435 36.3655C33.1038 36.2169 32.9181 35.4372 32.9181 35.177V34.545H27.7729C25.3766 34.5084 23.8533 33.4676 23.8349 32.2603C23.8349 32.1491 23.8907 26.8744 23.8349 26.8182ZM76.0118 20.7441C74.5264 20.7071 73.3927 20.837 72.4082 21.2641C72.1301 21.3757 71.7025 21.3757 71.6471 21.7287C71.7958 21.8765 71.8324 22.1184 71.944 22.3232C72.1854 22.695 72.5759 23.1958 72.9286 23.456C73.3003 23.7537 73.6904 24.0505 74.0988 24.3107C74.8419 24.7562 75.6592 24.9976 76.3461 25.4443C76.7736 25.7037 77.182 26.0388 77.5909 26.3357C77.7761 26.4843 77.9252 26.7074 78.1666 26.7999V26.7632C78.0367 26.5959 77.9993 26.3544 77.8877 26.1679L77.3307 25.6109C76.7924 24.9052 76.1046 24.2732 75.3798 23.7537C74.8041 23.3449 73.5039 22.7691 73.2624 22.1005C73.2437 22.0818 73.225 22.0818 73.225 22.063C73.6338 22.0068 74.1171 21.859 74.4885 21.7654C75.1205 21.5988 75.6958 21.6355 76.3457 21.4685C76.6433 21.3753 76.9402 21.3012 77.2378 21.2083V21.041C76.9035 20.7067 76.6808 20.2425 76.3094 19.9452C75.3623 19.128 74.3215 18.3291 73.2629 17.6605C72.6684 17.2704 71.944 17.0289 71.3128 16.7134C71.108 16.6205 70.7362 16.5647 70.5884 16.3791C70.2533 15.9702 70.0868 15.4315 69.8266 14.9486C69.2816 13.8892 68.7737 12.8111 68.3037 11.7163C67.9881 10.9919 67.7646 10.2675 67.3753 9.59853C65.4432 6.44078 63.3812 4.52781 60.1681 2.65147C59.4811 2.26138 58.6639 2.09444 57.7905 1.89003C57.3263 1.85256 56.8621 1.83424 56.3975 1.79678C56.1186 1.6852 55.8217 1.33258 55.5428 1.16523C54.4841 0.496622 51.7535 -0.970891 50.9729 0.960814C50.4712 2.16813 51.716 3.35713 52.1615 3.97036C52.4779 4.3975 52.8671 4.88084 53.0907 5.36335C53.2385 5.67892 53.2572 5.9949 53.3875 6.3292C53.7031 7.16517 53.9633 8.07523 54.3534 8.83667C54.5574 9.22676 54.7801 9.63558 55.0403 9.98862C55.1889 10.193 55.4679 10.2859 55.5045 10.6202C55.2443 10.9915 55.2264 11.549 55.0778 12.0132C54.4275 14.1122 54.6689 16.6942 55.6348 18.2542C55.9325 18.7183 56.6194 19.74 57.5857 19.3503C58.4216 18.9973 58.2355 17.9569 58.477 17.0098C58.5332 16.8054 58.4957 16.6567 58.6069 16.5081V16.5452C58.8483 17.0652 59.1085 17.5668 59.3687 18.0681C59.9258 18.9785 60.9291 19.9444 61.7838 20.5755C62.2105 20.9098 62.5635 21.486 63.1393 21.6713V21.6338H63.0839C62.9724 21.4673 62.805 21.3928 62.6751 21.2624C62.3408 20.9281 61.9695 20.5193 61.6905 20.148C60.9295 19.1076 60.2422 17.9561 59.6106 16.7671C59.3129 16.1913 59.0527 15.5598 58.8121 14.984C58.7184 14.7613 58.7184 14.427 58.5145 14.2967C58.2355 14.7238 57.8463 15.0768 57.6223 15.5785C57.288 16.3774 57.2326 17.3616 57.1215 18.3649C57.0465 18.4019 57.0653 18.3832 57.0278 18.4207C56.4341 18.2721 56.2293 17.6588 56.0066 17.1388C55.4683 15.82 55.3563 13.7026 55.8392 12.1793C55.9691 11.7892 56.5457 10.5631 56.3042 10.1918C56.1918 9.83875 55.8392 9.61602 55.6352 9.3375C55.375 9.0032 55.1336 8.55732 54.9483 8.16724C54.5028 7.12686 54.298 5.97534 53.8147 4.93538C53.5732 4.43372 53.2023 3.93206 52.8863 3.50492C52.5332 3.00326 52.1432 2.65064 51.8651 2.05614C51.7722 1.85173 51.6423 1.51743 51.7722 1.29428C51.8276 1.14566 51.8838 1.08987 52.0316 1.03408C52.2731 0.848408 52.9608 1.10861 53.2202 1.20103C53.8892 1.49828 54.465 1.75847 55.0407 2.14856C55.3196 2.33424 55.5986 2.68686 55.9329 2.78011H56.3047C56.8992 2.91 57.5673 2.81717 58.1244 2.98452C59.109 3.28136 60.0003 3.74597 60.7996 4.26636C63.2513 5.80798 65.2392 7.99988 66.6135 10.6189C66.8362 11.0461 66.929 11.4361 67.1151 11.882C67.5056 12.7925 68.0065 13.7209 68.3965 14.5939C68.7683 15.4857 69.1584 16.3774 69.6967 17.1014C69.9944 17.4915 71.1084 17.6959 71.6101 17.8999C71.9631 18.0485 72.5385 18.2154 72.8736 18.4203C73.5235 18.7916 74.1363 19.2562 74.7495 19.6834C75.0459 19.8899 75.9743 20.354 76.0118 20.7441Z" fill="#223C4D"/>
<path fill-rule="evenodd" clip-rule="evenodd" d="M57.0638 4.60254C56.8072 4.60262 56.5517 4.63393 56.3027 4.69579V4.73285H56.3581C56.5067 5.0301 56.7669 5.23451 56.9526 5.49429C57.0825 5.79154 57.2315 6.08879 57.3614 6.38604L57.4168 6.33025C57.677 6.16331 57.7886 5.86606 57.7886 5.40186C57.6957 5.29029 57.677 5.1604 57.5846 5.0301C57.4543 4.844 57.2315 4.75116 57.0638 4.60254Z" fill="#223C4D"/>
<path fill-rule="evenodd" clip-rule="evenodd" d="M37.2422 34.6197H44.2076C45.0248 34.6197 45.8233 34.4523 46.4548 34.1547C47.4948 33.6726 48.0152 33.0219 48.0152 32.1676V30.3845C48.0152 29.6976 47.4207 29.029 46.2883 28.6014C45.6751 28.36 44.932 28.2484 44.2076 28.2484H41.273C40.2884 28.2484 39.8242 27.9507 39.7126 27.3013C39.6939 27.2272 39.6939 27.1526 39.6939 27.0785V25.9824C39.6939 25.9083 39.6939 25.8525 39.7126 25.7784C39.8242 25.2767 40.084 25.1281 40.9387 25.054C41.0128 25.054 41.1056 25.0353 41.1801 25.0353H48.1084V23.4195H41.2917C40.3071 23.4195 39.8054 23.4936 39.3413 23.6235C37.8925 24.0877 37.2609 24.7938 37.2609 26.0386V27.4503C37.2609 28.5465 38.5053 29.4748 40.5673 29.6976C40.8088 29.6976 41.0315 29.7163 41.273 29.7163H43.7808C43.8737 29.7163 43.9661 29.7163 44.0402 29.735C44.8208 29.8091 45.1364 29.939 45.3778 30.2171C45.5077 30.3658 45.5639 30.4961 45.5639 30.6634V32.0752C45.5639 32.2425 45.4523 32.4657 45.2109 32.6509C45.0061 32.837 44.653 32.9486 44.1888 32.9852C44.096 32.9852 44.0223 33.004 43.9286 33.004H37.2422V34.6197ZM63.1354 31.7954C63.1354 33.4673 64.3614 34.3957 66.8693 34.5818C67.092 34.6005 67.3335 34.6193 67.5562 34.6193H73.8717V33.0027H67.5187C66.0883 33.0027 65.55 32.6497 65.55 31.7954V23.4187H63.1349V31.7954H63.1354ZM49.5572 31.8882V26.1306C49.5572 24.6631 50.5784 23.7717 52.6217 23.4928C52.8265 23.4553 53.068 23.4553 53.272 23.4553H57.8781C58.1009 23.4553 58.3057 23.4553 58.5471 23.4928C60.5717 23.7717 61.6116 24.6631 61.6116 26.1306V31.8882C61.6116 33.0776 61.1662 33.7088 60.1629 34.1176L62.5592 36.2725H59.7361L57.804 34.5447L55.8532 34.6563H53.2716C52.8261 34.6563 52.3615 34.6009 51.8411 34.4523C50.3003 34.0431 49.5572 33.2259 49.5572 31.8882ZM52.1763 31.7404C52.1763 31.8333 52.195 31.907 52.2137 32.0006C52.3624 32.6688 52.9935 33.0406 53.9406 33.0406H56.1517L54.1271 31.22H56.9502L58.7145 32.7991C59.0309 32.6318 59.2536 32.3716 59.3277 32.0373C59.3465 31.9444 59.3465 31.8707 59.3465 31.7958V26.2609C59.3465 26.2047 59.3465 26.131 59.3277 26.0561C59.1791 25.4249 58.548 25.0723 57.6188 25.0723H53.941C52.8636 25.0723 52.1767 25.5365 52.1767 26.2609V31.7404H52.1763ZM74.9866 34.6197H75.3396V33.2821H75.8226V33.0031H74.5037V33.2821H74.9866V34.6197ZM77.6985 34.6197H78.0141V33.0031H77.5311L77.1044 34.118L76.6777 33.0031H76.176V34.6197H76.5103V33.3936L76.9745 34.6197H77.216L77.6802 33.3936H77.6989V34.6197H77.6985Z" fill="#223C4D"/>
<path fill-rule="evenodd" clip-rule="evenodd" d="M6.47159 19.5925L5.11523 13.314H5.80257L6.58275 17.4376C6.67559 17.8648 6.75011 18.2919 6.80589 18.7191L7.04735 17.5488L8.03194 13.3136H8.83043L9.57356 16.4901C9.75923 17.2703 9.88913 18.013 9.98196 18.7191C10.0378 18.3107 10.1306 17.846 10.2422 17.3448L11.0407 13.314H11.7467L10.3167 19.5925H9.6664L8.57065 14.8186L8.4033 14.0755C8.36624 14.354 8.31046 14.5959 8.25467 14.8186L7.15851 19.5925H6.47159ZM12.1743 16.5463C12.1743 15.4689 12.4157 14.6517 12.8799 14.0755C13.3445 13.4997 13.9386 13.2212 14.6447 13.2212C15.0902 13.2212 15.5177 13.3328 15.8891 13.5925C16.2604 13.8523 16.5577 14.2241 16.7808 14.707C16.9852 15.2083 17.0968 15.784 17.0968 16.4714C17.0968 17.4002 16.8924 18.1433 16.4648 18.7374C16.0006 19.3877 15.3878 19.7032 14.6447 19.7032C13.8828 19.7032 13.27 19.3689 12.8058 18.7186C12.3783 18.1067 12.1743 17.3823 12.1743 16.5463ZM12.8799 16.5463C12.8799 17.3265 13.0469 17.921 13.3816 18.3481C13.7346 18.7753 14.143 18.9984 14.626 18.9984C15.1276 18.9984 15.5548 18.7753 15.8891 18.3481C16.2234 17.921 16.3907 17.2894 16.3907 16.4535C16.3907 15.8964 16.3166 15.4318 16.1305 15.0051C16.0006 14.6708 15.7962 14.4106 15.536 14.2249C15.2794 14.0309 14.9661 13.9264 14.6443 13.9277C14.1239 13.9277 13.6967 14.1317 13.3812 14.5592C13.0469 14.986 12.8799 15.6546 12.8799 16.5463ZM17.9507 19.5925V13.314H20.2354C20.6996 13.314 21.0526 13.3698 21.2758 13.4997C21.5172 13.6113 21.7029 13.797 21.8328 14.0755C21.9814 14.354 22.0559 14.67 22.0559 15.0226C22.0559 15.5059 21.9444 15.8773 21.6846 16.1745C21.4427 16.4718 21.0901 16.6575 20.6072 16.7503C20.8116 16.8619 20.9415 16.9734 21.053 17.0846C21.2575 17.3261 21.4248 17.5863 21.5918 17.8831L22.4831 19.5921H21.6288L20.9415 18.2915C20.663 17.7898 20.4773 17.4372 20.3287 17.2699C20.1988 17.0842 20.0685 16.9539 19.9386 16.8981C19.8087 16.8423 19.6413 16.8053 19.4186 16.8053H18.6384V19.5917H17.9507V19.5925ZM18.638 16.0817H20.0868C20.4023 16.0817 20.6438 16.0446 20.8112 15.9701C20.9781 15.896 21.108 15.7657 21.2196 15.6171C21.3124 15.4497 21.3495 15.2453 21.3495 15.0226C21.3495 14.707 21.2566 14.4656 21.0709 14.2799C20.8853 14.0942 20.6251 14.0014 20.2537 14.0014H18.6376V16.0817H18.638ZM23.1146 19.5925V13.314H23.802V16.4347L26.3469 13.314H27.2753L25.1021 15.859L27.3681 19.5925H26.4581L24.6379 16.4347L23.802 17.4193V19.5925H23.1146ZM27.6841 17.5679L28.3344 17.5122C28.3715 17.8465 28.446 18.125 28.5759 18.3107C28.6874 18.5151 28.8731 18.6637 29.0958 18.7748C29.319 18.9047 29.5788 18.9605 29.8577 18.9605C30.2661 18.9605 30.5634 18.8489 30.7865 18.6637C31.0092 18.4593 31.1208 18.1991 31.1208 17.8835C31.1208 17.6978 31.0838 17.5492 31.0092 17.4006C30.9351 17.2707 30.8048 17.1591 30.6375 17.0663C30.4705 16.9734 30.1175 16.8436 29.5788 16.6949C29.0958 16.5463 28.7428 16.3977 28.5384 16.2491C28.3316 16.1166 28.1647 15.9304 28.0555 15.7103C27.9439 15.4872 27.8881 15.2274 27.8881 14.9489C27.8881 14.4285 28.0555 14.0201 28.371 13.7041C28.7053 13.3698 29.1512 13.2212 29.7082 13.2212C30.0796 13.2212 30.4139 13.2953 30.7111 13.4439C30.9897 13.5925 31.2128 13.8153 31.3798 14.0942C31.5421 14.4033 31.6251 14.748 31.6212 15.0971L30.9709 15.1529C30.9522 14.7445 30.8223 14.4472 30.6179 14.2428C30.3947 14.0384 30.1162 13.9456 29.7266 13.9456C29.3361 13.9456 29.0392 14.0384 28.8531 14.2058C28.7524 14.2852 28.6714 14.3869 28.6166 14.5029C28.5619 14.619 28.5348 14.7461 28.5376 14.8744C28.5376 15.1346 28.6121 15.3203 28.7607 15.4689C28.9089 15.5988 29.2436 15.7474 29.7636 15.896C30.2836 16.0259 30.6366 16.1562 30.841 16.2491C31.157 16.416 31.3981 16.6204 31.5467 16.8806C31.7141 17.1408 31.7882 17.4564 31.7882 17.8094C31.7904 18.1548 31.7006 18.4945 31.528 18.7936C31.3606 19.0908 31.1379 19.314 30.8406 19.4622C30.5621 19.6291 30.2091 19.7036 29.8003 19.7036C29.1687 19.7036 28.6487 19.518 28.2774 19.1279C27.906 18.7378 27.7024 18.2178 27.6841 17.5679ZM35.8198 19.5925L34.4638 13.314H35.1512L35.9313 17.4376C36.0242 17.8648 36.0983 18.2919 36.1545 18.7191L36.3959 17.5488L37.3801 13.3136H38.179L38.9217 16.4901C39.0963 17.2256 39.2327 17.9695 39.3305 18.7191C39.3863 18.3107 39.4792 17.846 39.572 17.3448L40.3892 13.314H41.0949L39.6648 19.5925H39.0146L37.9184 14.8186L37.7515 14.0755C37.7144 14.354 37.6586 14.5959 37.6028 14.8186L36.5071 19.5925H35.8198ZM41.838 19.5925V13.314H42.5254V19.5925H41.838ZM45.0328 19.5925V14.0572H43.3426V13.314H47.4104V14.0572H45.7023V19.5925H45.0328ZM48.0798 19.5925V13.314H48.7668V15.896H51.4412V13.314H52.1289V19.5925H51.4412V16.6391H48.7668V19.5925H48.0798Z" fill="#223C4D"/>
</svg>
