<svg width="106" height="34" viewBox="0 0 106 34" fill="none" xmlns="http://www.w3.org/2000/svg">
<path d="M34.3735 10.309C34.3723 10.0073 34.3679 9.70566 34.3602 9.40406C34.342 8.747 34.3038 8.08388 34.1868 7.43409C34.0753 6.7823 33.8671 6.15081 33.5691 5.5605C32.9656 4.37451 32.0017 3.41026 30.816 2.80617C30.2258 2.50854 29.5946 2.30057 28.943 2.18912C28.292 2.07213 27.6289 2.03334 26.9719 2.01576C26.6694 2.00727 26.3681 2.00364 26.0663 2.00182C25.708 2 25.3498 2 24.991 2H13.7603C13.4015 2 13.0439 2 12.6856 2.00182C12.3838 2.00424 12.0819 2.00788 11.78 2.01576C11.6158 2.02 11.4509 2.02606 11.286 2.03394C10.792 2.05758 10.2968 2.10123 9.80886 2.18912C9.32232 2.27377 8.84636 2.41075 8.38926 2.59766C7.62343 2.91467 6.92748 3.37933 6.3411 3.96512C5.87341 4.43253 5.48229 4.97072 5.18215 5.55989C4.87665 6.15997 4.68329 6.77339 4.56509 7.43348C4.44811 8.08388 4.40931 8.747 4.39174 9.40345C4.38325 9.70653 4.37961 10.0078 4.37779 10.309C4.37598 10.6679 4.37598 11.0261 4.37598 11.3843V22.615C4.37598 22.9738 4.37598 23.3321 4.37779 23.6903C4.38022 23.9922 4.38386 24.294 4.39174 24.5953C4.40992 25.2529 4.44811 25.9161 4.56509 26.5652C4.67637 27.2174 4.88434 27.8493 5.18215 28.44C5.78583 29.6264 6.75015 30.5907 7.93647 31.1944C8.53595 31.4993 9.14937 31.6926 9.80946 31.8114C10.4592 31.9284 11.123 31.9672 11.78 31.9848C12.0819 31.9927 12.3838 31.9963 12.6856 31.9981C13.0432 32.0005 13.4015 31.9999 13.7603 31.9999H24.991C25.3486 31.9999 25.7074 32.0005 26.0657 31.9981C26.3675 31.9963 26.6688 31.9927 26.9706 31.9848C27.6283 31.9666 28.292 31.9284 28.9418 31.8114C29.5934 31.7 30.2246 31.492 30.8148 31.1944C32.0008 30.5905 32.9649 29.6262 33.5685 28.44C33.874 27.84 34.0674 27.2259 34.1862 26.5664C34.3032 25.9167 34.342 25.2535 34.3595 24.5959C34.3674 24.2946 34.3711 23.9928 34.3729 23.6909C34.3753 23.3327 34.3747 22.9744 34.3747 22.6156V11.3843C34.3747 11.0261 34.3747 10.6679 34.3729 10.309H34.3735Z" fill="#223C4D"/>
<path d="M28.1466 20.5175L28.1448 20.5157C28.1775 20.4023 28.2114 20.2902 28.2411 20.1744C29.4862 15.2137 26.4469 9.34869 21.305 6.26099C23.5587 9.31596 24.5546 13.0159 23.669 16.2515C23.5902 16.5406 23.4956 16.8176 23.3908 17.0867C23.2443 16.9924 23.0942 16.9036 22.941 16.8206C22.941 16.8206 17.8251 13.6626 12.2813 8.07578C12.1359 7.9291 15.2375 12.5091 18.758 16.2284C17.0996 15.298 12.4771 11.9345 9.55126 9.25655C9.91071 9.85664 10.3386 10.4337 10.8084 10.9895C13.2518 14.0881 16.4389 17.9117 20.2564 20.8479C17.5742 22.4893 13.784 22.6166 10.0101 20.8497C9.08619 20.4158 8.20745 19.8915 7.38672 19.2846C9.0742 21.9648 11.5323 24.0723 14.4386 25.3309C18.01 26.8657 21.5608 26.7614 24.2054 25.3564L24.2036 25.3594C24.2157 25.3515 24.2309 25.3436 24.2436 25.3352C24.3521 25.2776 24.46 25.2176 24.5649 25.1551C25.836 24.4956 28.346 23.8265 29.6929 26.4474C30.0232 27.0893 30.7245 23.6895 28.1472 20.5181L28.1466 20.5175Z" fill="white"/>
<path d="M45.7605 21.4689C45.995 23.5498 47.9802 24.9142 50.7369 24.9142C53.3561 24.9142 55.2448 23.5504 55.2448 21.6616C55.2448 20.0353 54.1004 19.0425 51.4673 18.3812L48.9173 17.7326C45.2507 16.8234 43.5965 15.1686 43.5965 12.4397C43.5965 9.07624 46.5327 6.74683 50.7096 6.74683C54.7617 6.74683 57.6427 9.09018 57.7397 12.4676H55.0514C54.8447 10.3995 53.1627 9.1314 50.6405 9.1314C48.145 9.1314 46.4084 10.4134 46.4084 12.2876C46.4084 13.7484 47.4837 14.6176 50.1302 15.2929L52.2535 15.8445C56.3613 16.8507 58.0428 18.4497 58.0428 21.3307C58.0428 24.9979 55.1339 27.2994 50.5023 27.2994C46.2017 27.2994 43.2656 25.0112 43.0449 21.4683H45.7605V21.4689ZM75.1173 26.9684H72.4157L69.2589 15.9687H69.2043L66.0609 26.9684H63.3599L59.3623 12.5634H61.9809L64.7655 24.1286H64.8207L67.9635 12.5634H70.5003L73.6704 24.1286H73.7256L76.5102 12.5634H79.1015L75.1173 26.9684ZM80.8453 8.69013C80.8453 7.82213 81.563 7.119 82.431 7.119C83.3136 7.119 84.03 7.82213 84.03 8.69013C84.03 9.55873 83.3136 10.2752 82.431 10.2752C82.0114 10.2728 81.6096 10.105 81.3128 9.8083C81.0161 9.51156 80.8483 9.10978 80.8459 8.69013H80.8453ZM81.1217 12.5634H83.7542V26.9684H81.1217V12.5634ZM100.948 14.6867V12.5634H98.1635V9.11746H95.5437V12.5634H90.5115V11.2953C90.5249 10.0133 91.0207 9.47569 92.2069 9.47569C92.5924 9.47569 92.9785 9.51751 93.2956 9.57267V7.5039C92.8351 7.43189 92.3699 7.39501 91.9038 7.39358C89.0913 7.39358 87.9057 8.56587 87.9057 11.2535V12.5628H85.8933V14.6861H87.9057V26.9678H90.5249V14.6867H95.5443V23.1909C95.5443 25.9756 96.6051 27.0503 99.3625 27.0503C99.9553 27.0503 100.631 27.009 100.934 26.9405V24.7899C100.605 24.8307 100.273 24.8537 99.9413 24.859C98.7145 24.859 98.1635 24.2802 98.1635 22.9842V14.6867H100.948Z" fill="#223C4D"/>
</svg>
