<svg width="90" height="34" viewBox="0 0 90 34" fill="none" xmlns="http://www.w3.org/2000/svg">
<path d="M27.6557 0L23.1235 7.85183L18.5912 0H3.5L23.1235 34L42.7469 0H27.6557Z" fill="#879499"/>
<path d="M27.6559 0L23.1237 7.85183L18.5915 0H11.3496L23.1237 20.3991L34.8978 0H27.6559Z" fill="#223C4D"/>
<path d="M46.5261 21.293L42.7461 9.48503H44.3481L46.2381 15.857C46.4541 16.553 46.6401 17.207 46.7961 17.819C46.9641 18.419 47.1621 19.067 47.3901 19.763H47.4621C47.6781 19.067 47.8701 18.419 48.0381 17.819C48.2061 17.207 48.3921 16.553 48.5961 15.857L50.4861 9.48503H52.0161L48.2721 21.293H46.5261Z" fill="#223C4D"/>
<path d="M55.4968 21.509C54.5728 21.509 53.8948 21.221 53.4628 20.645C53.0308 20.057 52.8148 19.205 52.8148 18.089V12.545H54.3088V17.891C54.3088 18.707 54.4348 19.301 54.6868 19.673C54.9508 20.045 55.3708 20.231 55.9468 20.231C56.4028 20.231 56.8048 20.117 57.1528 19.889C57.5128 19.649 57.8968 19.271 58.3048 18.755V12.545H59.7808V21.293H58.5568L58.4308 19.925H58.3768C57.9688 20.405 57.5368 20.789 57.0808 21.077C56.6248 21.365 56.0968 21.509 55.4968 21.509Z" fill="#223C4D"/>
<path d="M66.2779 21.509C65.4979 21.509 64.7899 21.329 64.1539 20.969C63.5179 20.597 63.0139 20.069 62.6419 19.385C62.2699 18.701 62.0839 17.885 62.0839 16.937C62.0839 15.977 62.2699 15.155 62.6419 14.471C63.0259 13.787 63.5179 13.259 64.1179 12.887C64.7179 12.515 65.3479 12.329 66.0079 12.329C67.1239 12.329 67.9819 12.701 68.5819 13.445C69.1939 14.189 69.4999 15.185 69.4999 16.433C69.4999 16.589 69.4939 16.745 69.4819 16.901C69.4819 17.045 69.4699 17.171 69.4459 17.279H63.5419C63.6019 18.203 63.8899 18.941 64.4059 19.493C64.9339 20.045 65.6179 20.321 66.4579 20.321C66.8779 20.321 67.2619 20.261 67.6099 20.141C67.9699 20.009 68.3119 19.841 68.6359 19.637L69.1579 20.609C68.7859 20.849 68.3599 21.059 67.8799 21.239C67.4119 21.419 66.8779 21.509 66.2779 21.509ZM63.5239 16.217H68.2039C68.2039 15.329 68.0119 14.657 67.6279 14.201C67.2559 13.733 66.7279 13.499 66.0439 13.499C65.4319 13.499 64.8799 13.739 64.3879 14.219C63.9079 14.687 63.6199 15.353 63.5239 16.217Z" fill="#223C4D"/>
<path d="M72.4355 21.509C72.1355 21.509 71.8775 21.407 71.6615 21.203C71.4575 20.987 71.3555 20.717 71.3555 20.393C71.3555 20.045 71.4575 19.769 71.6615 19.565C71.8775 19.349 72.1355 19.241 72.4355 19.241C72.7235 19.241 72.9695 19.349 73.1735 19.565C73.3895 19.769 73.4975 20.045 73.4975 20.393C73.4975 20.717 73.3895 20.987 73.1735 21.203C72.9695 21.407 72.7235 21.509 72.4355 21.509Z" fill="#223C4D"/>
<path d="M75.7186 25.199C75.4546 25.199 75.2146 25.175 74.9986 25.127C74.7706 25.079 74.5786 25.025 74.4226 24.965L74.7286 23.849C74.8366 23.885 74.9626 23.915 75.1066 23.939C75.2506 23.975 75.4006 23.993 75.5566 23.993C75.9886 23.993 76.2766 23.837 76.4206 23.525C76.5646 23.225 76.6366 22.811 76.6366 22.283V12.545H78.1126V22.283C78.1126 23.171 77.9326 23.879 77.5726 24.407C77.2126 24.935 76.5946 25.199 75.7186 25.199ZM77.3566 10.745C77.0686 10.745 76.8286 10.661 76.6366 10.493C76.4566 10.313 76.3666 10.073 76.3666 9.77302C76.3666 9.48502 76.4566 9.25102 76.6366 9.07103C76.8286 8.89103 77.0686 8.80103 77.3566 8.80103C77.6446 8.80103 77.8786 8.89103 78.0586 9.07103C78.2506 9.25102 78.3466 9.48502 78.3466 9.77302C78.3466 10.073 78.2506 10.313 78.0586 10.493C77.8786 10.661 77.6446 10.745 77.3566 10.745Z" fill="#223C4D"/>
<path d="M83.3518 21.509C82.7278 21.509 82.1338 21.395 81.5698 21.167C81.0058 20.927 80.5138 20.639 80.0938 20.303L80.8318 19.313C81.2158 19.613 81.6118 19.865 82.0198 20.069C82.4278 20.261 82.8898 20.357 83.4058 20.357C83.9818 20.357 84.4138 20.225 84.7018 19.961C84.9898 19.685 85.1338 19.361 85.1338 18.989C85.1338 18.689 85.0318 18.437 84.8278 18.233C84.6358 18.029 84.3838 17.861 84.0718 17.729C83.7718 17.585 83.4598 17.453 83.1358 17.333C82.7278 17.177 82.3258 17.003 81.9298 16.811C81.5338 16.607 81.2098 16.349 80.9578 16.037C80.7058 15.713 80.5798 15.305 80.5798 14.813C80.5798 14.105 80.8438 13.517 81.3718 13.049C81.9118 12.569 82.6558 12.329 83.6038 12.329C84.1438 12.329 84.6478 12.425 85.1158 12.617C85.5838 12.809 85.9858 13.043 86.3218 13.319L85.6018 14.255C85.3018 14.027 84.9898 13.841 84.6658 13.697C84.3418 13.553 83.9878 13.481 83.6038 13.481C83.0518 13.481 82.6438 13.607 82.3798 13.859C82.1278 14.111 82.0018 14.405 82.0018 14.741C82.0018 15.017 82.0918 15.245 82.2718 15.425C82.4518 15.593 82.6858 15.743 82.9738 15.875C83.2618 15.995 83.5678 16.121 83.8918 16.253C84.3118 16.409 84.7258 16.589 85.1338 16.793C85.5418 16.985 85.8778 17.249 86.1418 17.585C86.4178 17.909 86.5558 18.347 86.5558 18.899C86.5558 19.367 86.4298 19.799 86.1778 20.195C85.9378 20.591 85.5778 20.909 85.0978 21.149C84.6298 21.389 84.0478 21.509 83.3518 21.509Z" fill="#223C4D"/>
</svg>
