<svg width="206" height="79" viewBox="0 0 206 79" fill="none" xmlns="http://www.w3.org/2000/svg">
<path d="M135.038 35.9622C134.779 38.3946 134.518 40.8694 134.248 43.4189C135.5 43.3359 136.664 43.061 137.803 42.6981C139.358 42.2035 140.896 41.6438 142.448 41.1395C142.789 41.0288 143.18 40.7652 143.605 41.2664C140.584 42.6542 137.532 43.7248 134.175 44.0535C134.073 44.7808 133.972 45.5048 133.87 46.2288C133.815 46.6226 133.749 47.0147 133.708 47.41C133.66 47.8819 133.34 47.9112 132.975 47.9112C132.55 47.9112 132.45 47.6525 132.471 47.2945C132.531 46.2646 132.437 45.2526 132.061 44.156C131.744 44.156 131.386 44.1592 131.029 44.156C128.99 44.1348 126.979 43.868 125.031 43.2676C124.321 43.048 123.61 42.6835 123.024 42.2247C121.87 41.3217 121.83 40.0298 122.844 38.969C123.828 37.9374 125.088 37.4868 126.471 37.3322C128.645 37.0914 130.244 38.0432 131.403 39.8183C131.865 40.5244 132.227 41.2956 132.71 42.1759C132.77 41.7154 132.814 41.3493 132.867 40.9849C133.085 39.5271 133.29 38.0676 133.539 36.6147C133.587 36.3316 133.75 35.9997 133.968 35.8304C134.269 35.5961 134.658 35.6303 135.036 35.9655L135.038 35.9622ZM131.951 43.6581C131.496 41.7268 130.688 40.1323 129.309 38.8681C128.648 38.2645 127.868 37.7682 126.957 37.874C125.71 38.0172 124.531 38.4353 123.683 39.4604C123.111 40.1518 123.087 40.9751 123.717 41.6178C124.119 42.0294 124.639 42.3939 125.174 42.5924C127.311 43.3896 129.562 43.5182 131.951 43.6581Z" fill="#C9ACC9"/>
<path d="M77.3681 48.1353C77.6281 50.8427 78.4568 53.2312 80.4354 55.1039C80.7407 55.3935 81.0928 55.649 81.4611 55.8523C83.5721 57.014 84.8885 56.7716 86.4828 55.553C87.7733 54.5654 88.8442 53.3532 89.8456 52.0792C91.8841 49.4858 93.5913 46.6742 95.2114 43.8042C95.6863 42.963 96.1046 42.1234 96.3275 41.1586C96.7055 39.5234 97.4646 38.0672 98.7665 36.9609C99.7647 36.1132 100.881 35.5584 102.238 35.6381C104.153 35.752 105.181 37.3725 104.389 39.1329C103.641 40.7958 102.473 41.9933 100.59 42.3154C99.7728 42.4553 99.0249 42.2813 98.2028 41.8696C98.1204 42.2503 98.0267 42.592 97.9718 42.9402C97.7667 44.2386 97.694 45.5418 97.9411 46.8435C98.3142 48.8105 99.5951 49.6875 101.592 49.5248C103.929 49.3344 105.833 48.2427 107.584 46.8044C109.522 45.2099 111.123 43.2998 112.569 41.2513C113.599 39.7919 114.638 38.3373 115.697 36.899C116.179 36.2466 116.529 36.214 117.19 36.6843C115.927 38.5537 114.723 40.4687 113.383 42.2829C111.792 44.4338 109.962 46.37 107.775 47.9352C105.668 49.4435 103.357 50.3058 100.745 50.2358C98.1527 50.1659 96.5973 48.8317 96.1014 46.2675C96.0319 45.9128 95.9738 45.5565 95.8882 45.0781C95.6782 45.4003 95.5215 45.6248 95.381 45.8591C93.6446 48.7292 91.7985 51.5196 89.5485 54.0138C89.0187 54.6012 88.4372 55.1495 87.8379 55.6652C85.6186 57.5689 83.2604 57.7185 80.5291 56.2884C79.2951 55.6424 78.3808 54.6402 77.6249 53.4834C76.7624 52.1622 76.1874 50.719 75.8611 49.1734C75.8207 48.9814 75.769 48.791 75.7351 48.6511C75.1359 48.6364 74.5786 48.6364 74.023 48.6072C72.1348 48.5063 71.1447 47.6195 70.8039 45.7387C70.7538 45.4654 70.7053 45.192 70.6391 44.8292C70.2337 45.275 69.8993 45.6899 69.5181 46.056C68.885 46.6629 68.2292 47.2453 67.567 47.8213C67.378 47.9856 67.1486 48.1223 66.916 48.215C66.026 48.5697 65.2217 48.2818 64.9293 47.3641C64.666 46.5376 64.5223 45.6525 64.4577 44.7836C64.3397 43.1843 64.6741 41.6142 64.9115 40.0408C64.9277 39.9318 64.9422 39.8244 64.8405 39.6227C64.5691 39.9172 64.2477 40.1791 64.0329 40.511C63.2963 41.6548 62.5905 42.8182 61.8878 43.9831C61.581 44.4924 61.3209 45.0309 61.0221 45.5467C60.8816 45.7908 60.7104 46.0202 60.5359 46.2414C60.2258 46.6352 59.7945 46.6287 59.373 46.5229C58.9998 46.4302 58.8755 46.1048 58.7979 45.7533C58.5831 44.7787 58.7656 43.8269 58.9562 42.88C59.3132 41.1147 59.9948 39.4616 60.762 37.8427C61.2369 36.8421 61.7392 35.8561 62.1802 34.8408C62.4273 34.2714 62.6034 33.6661 62.7536 33.0625C62.8344 32.7403 62.8392 32.3791 62.794 32.0488C62.6842 31.2581 62.3207 31.0254 61.5745 31.2581C60.4745 31.5998 59.549 32.2441 58.6962 33.0039C57.6721 33.9167 56.85 34.9986 56.1134 36.1506C53.5953 40.0896 51.6264 44.2939 50.1016 48.7162C50.0273 48.9309 49.9514 49.1457 49.8755 49.3588C49.7398 49.7363 49.4701 49.8958 49.084 49.8226C48.719 49.7526 48.6027 49.489 48.5736 49.1392C48.4638 47.8229 48.5607 46.5311 48.908 45.2522C49.336 43.6821 49.9788 42.2015 50.6976 40.7502C51.0627 40.0132 51.4212 39.2729 51.7653 38.5244C51.9074 38.2169 52.0156 37.8915 52.1158 37.5661C52.5244 36.2254 52.1642 35.8301 50.7994 36.0221C48.8514 36.2938 47.0149 36.9381 45.243 37.7435C43.3936 38.583 41.5975 39.5413 39.782 40.4557C39.5607 40.568 39.3572 40.716 39.1101 40.869C39.2538 40.9829 39.3556 41.0805 39.4719 41.1553C43.0819 43.4674 44.5969 49.7135 40.4297 53.8039C38.8371 55.3675 36.9521 56.4055 34.8766 57.1361C32.1614 58.0911 29.38 58.3368 26.542 57.8747C24.7249 57.5786 23.6395 56.5503 23.3908 54.907C23.2841 54.209 23.4651 53.5517 23.6944 52.9058C24.2194 51.4317 25.1368 50.2114 26.1818 49.079C27.6711 47.4666 29.3751 46.1064 31.1858 44.8861C32.8042 43.796 34.4647 42.7694 36.1057 41.715C36.34 41.5637 36.5725 41.4092 36.9263 41.1781C36.5273 40.9845 36.2317 40.7974 35.9103 40.6916C34.1966 40.1319 32.4715 39.6097 30.761 39.0386C29.9615 38.7717 29.1506 38.4935 28.4092 38.0998C26.2287 36.9364 25.5067 34.7155 26.5243 32.441C27.0686 31.2256 27.9053 30.2249 28.9035 29.3707C31.4701 27.171 34.455 25.9442 37.792 25.5472C39.8644 25.2999 41.9108 25.4138 43.8976 26.0662C44.6115 26.3005 45.2947 26.6682 45.9392 27.062C46.5611 27.4411 46.9568 28.0447 47.0812 28.785C47.1183 29.003 47.1231 29.2373 47.0844 29.4537C47.0278 29.7629 46.9293 30.085 46.5304 30.0997C46.1492 30.1127 46.0022 29.8491 45.902 29.5253C45.4902 28.1814 44.5259 27.4427 43.245 27.0083C40.6994 26.1443 38.1861 26.364 35.6923 27.1905C33.1483 28.0333 30.929 29.3935 29.212 31.5022C28.6531 32.1871 28.1993 32.9323 28.028 33.8288C27.7389 35.3371 28.3139 36.7266 29.6804 37.4099C30.5316 37.8346 31.4571 38.1274 32.3746 38.3926C34.35 38.9654 36.3496 39.4567 38.2185 40.3988C39.3669 39.7903 40.5024 39.1639 41.6589 38.5798C43.904 37.4473 46.1734 36.3686 48.6108 35.7162C49.5331 35.4689 50.4812 35.2704 51.4277 35.1923C52.0237 35.1435 52.652 35.3127 53.2448 35.4672C53.8941 35.6364 54.2576 36.1555 54.5112 36.8746C54.7647 36.4809 54.9699 36.1604 55.175 35.8415C56.1522 34.3316 57.2635 32.9405 58.7139 31.8568C59.5361 31.2435 60.4067 30.7228 61.4307 30.5308C61.7603 30.469 62.1011 30.4218 62.4354 30.4316C63.7922 30.4722 64.6967 31.3281 64.6676 32.6931C64.6515 33.4709 64.4722 34.2779 64.2041 35.0117C63.8051 36.1002 63.2543 37.1333 62.7811 38.1958C62.0316 39.8814 61.2805 41.5654 60.5585 43.2624C60.3502 43.7505 60.2387 44.2809 60.2016 44.865C60.2985 44.7316 60.4115 44.6063 60.4923 44.4631C61.0964 43.3714 61.6359 42.2373 62.3127 41.1944C62.8473 40.3695 63.5418 39.6487 64.1831 38.897C64.3252 38.7294 64.5287 38.6009 64.7274 38.4984C65.7482 37.968 66.6834 38.4984 66.6285 39.6357C66.5752 40.7388 66.383 41.8354 66.2651 42.9369C66.1536 43.9815 66.0212 45.0261 65.9776 46.0739C65.955 46.6238 66.102 47.1803 66.194 47.888C66.5784 47.6651 66.8256 47.548 67.0436 47.3918C68.4602 46.37 69.6151 45.0911 70.581 43.6382C70.7473 43.3876 70.8426 43.0752 70.9169 42.7775C71.2916 41.2692 71.9587 39.9025 72.8277 38.6237C73.1104 38.2072 73.4625 37.9973 73.9648 38.0445C74.5576 38.0998 74.724 38.3308 74.5302 38.8856C74.4268 39.1801 74.2782 39.4567 74.1538 39.7431C73.5303 41.1749 72.8616 42.5985 72.6904 44.1735C72.6113 44.8991 72.6032 45.6541 72.7082 46.3749C72.8729 47.4975 73.6596 48.0133 74.7773 47.8669C75.0276 47.8343 75.2764 47.7985 75.5655 47.7595C75.572 47.4975 75.5897 47.2518 75.5817 47.0062C75.4541 43.5991 76.168 40.3467 77.3083 37.1626C78.7233 33.2154 80.7471 29.6311 83.514 26.4828C84.8191 24.9989 86.3196 23.7656 88.1158 22.9244C89.8198 22.1272 91.6014 21.9319 93.3927 22.4575C95.4246 23.0546 96.5989 24.4848 96.9155 26.6048C97.2304 28.7199 96.6328 30.661 95.767 32.5386C94.7591 34.7253 93.3749 36.6647 91.7274 38.4008C87.9978 42.3301 83.7159 45.4767 78.7249 47.6033C78.3114 47.779 77.8882 47.9303 77.3713 48.1321L77.3681 48.1353ZM77.3293 47.2421C77.7121 47.1054 77.9738 47.0241 78.2258 46.9183C81.5612 45.5174 84.551 43.5552 87.3243 41.24C89.8876 39.1004 92.1086 36.6631 93.7561 33.7279C94.5249 32.358 95.1371 30.9278 95.4004 29.3707C95.6265 28.0366 95.6378 26.7089 95.0644 25.4398C94.1712 23.4614 92.2717 22.612 90.2446 23.3247C89.6648 23.5281 89.1059 23.8209 88.5745 24.1349C87.1935 24.9517 86.079 26.0809 85.0646 27.3109C81.3044 31.8634 78.9801 37.1073 77.738 42.8605C77.4392 44.2451 77.2631 45.6573 77.3293 47.2421ZM28.8211 57.3346C29.7822 57.1898 30.971 57.1035 32.1113 56.8237C34.6407 56.2022 36.9489 55.1104 38.7838 53.1775C40.5379 51.3292 41.2534 49.1359 40.8173 46.6075C40.4991 44.7608 39.7368 43.1485 38.2088 41.9786C37.9035 41.7443 37.6547 41.6825 37.2994 41.9038C34.3936 43.7114 31.4701 45.4898 28.8663 47.7367C27.6404 48.7959 26.5097 49.9543 25.6941 51.3699C25.3161 52.0272 24.9785 52.7349 24.7815 53.4639C24.3292 55.1299 25.1707 56.6675 26.6713 57.0189C27.2996 57.1654 27.9521 57.2109 28.8179 57.3346H28.8211ZM98.3998 41.0594C98.9862 41.6012 99.5725 41.881 100.304 41.6841C101.709 41.3034 103.037 39.4339 102.94 37.9826C102.905 37.449 102.764 36.9364 102.273 36.681C101.798 36.4337 101.407 36.7965 101.046 37.052C99.6646 38.0282 98.9296 39.4421 98.4015 41.061L98.3998 41.0594Z" fill="white"/>
<path d="M74.4034 34.1089C74.3291 34.0877 74.1304 34.0633 73.9592 33.9803C73.6346 33.8258 73.2404 33.6875 73.3212 33.2124C73.3987 32.7568 73.8155 32.7161 74.1627 32.6462C74.3436 32.6104 74.552 32.6527 74.7378 32.6999C75.2304 32.8268 75.547 33.1571 75.5034 33.4646C75.4549 33.8014 74.993 34.104 74.4034 34.1073V34.1089Z" fill="white"/>
<path d="M169.866 43.2153C168.669 43.0591 167.581 42.9615 166.513 42.763C165.799 42.6296 165.075 42.4311 164.421 42.122C162.79 41.3507 162.564 39.9238 163.819 38.6108C164.726 37.6606 165.86 37.0684 167.111 36.7837C169.201 36.3086 171.31 36.167 173.352 37.0196C174.05 37.3108 174.736 37.672 175.355 38.1048C176.598 38.9736 177.341 40.1776 177.469 41.7282C177.479 41.8372 177.504 41.9446 177.543 42.1675C177.86 42.1333 178.159 42.1154 178.456 42.0683C180.74 41.7087 183.024 41.341 185.308 40.9814C185.558 40.9424 185.813 40.9033 186.065 40.9066C186.395 40.9114 186.674 41.027 186.75 41.4874C186.085 41.995 185.249 41.5509 184.519 41.8291C183.791 42.1057 182.982 42.1708 182.205 42.3091C181.428 42.4474 180.648 42.5775 179.866 42.6817C179.084 42.7858 178.296 42.8525 177.471 42.9404C177.382 43.1958 177.298 43.4285 177.217 43.6644C176.611 45.4313 175.573 46.8875 174.134 48.0655C173.142 48.8774 171.985 49.1784 170.743 49.1735C169.483 49.1686 168.571 48.3047 168.416 47.0275C168.379 46.7199 168.351 46.4092 168.307 45.9927C168.03 46.1765 167.779 46.3392 167.532 46.5084C165.644 47.8036 163.774 49.1263 161.864 50.3905C160.498 51.2968 159.075 52.125 157.479 52.5594C156.302 52.8799 155.092 53.0182 153.874 52.8213C151.795 52.4862 150.443 51.1113 149.905 48.9083C149.353 46.6467 149.663 44.4454 150.303 42.2684C151.025 39.8099 152.286 37.6297 153.809 35.5943C155.521 33.3067 157.503 31.2989 159.857 29.6751C161.385 28.6208 163.052 27.9895 164.922 28.0123C166.393 28.0302 167.623 28.5915 168.458 29.8476C169.16 30.9052 169.004 32.0116 168.493 33.0952C168.438 33.2107 168.22 33.3246 168.094 33.3083C167.968 33.292 167.795 33.1293 167.763 32.9992C167.668 32.6152 167.626 32.2166 167.576 31.8212C167.379 30.2918 166.096 29.0211 164.571 28.9544C164.116 28.9348 163.628 29.1122 163.195 29.296C162.68 29.5157 162.17 29.7874 161.725 30.1291C157.358 33.4857 154.055 37.6492 152.284 42.9452C151.797 44.4063 151.454 45.9113 151.588 47.4651C151.656 48.2494 151.795 49.0482 152.049 49.7885C152.811 52.0208 155.016 52.4439 156.511 52.0046C157.503 51.7133 158.516 51.344 159.38 50.7924C162.499 48.8009 165.571 46.7378 168.627 44.6504C169.113 44.3184 169.427 43.7311 169.865 43.2088L169.866 43.2153ZM175.941 42.3318C175.938 41.1099 175.519 40.1955 174.807 39.4341C172.66 37.1335 168.618 36.4989 165.888 38.3733C165.5 38.6385 165.137 38.9883 164.873 39.3771C164.373 40.1142 164.554 40.8952 165.311 41.3491C165.717 41.5915 166.174 41.7868 166.634 41.886C167.513 42.0748 168.412 42.1594 169.296 42.3237C170.179 42.488 170.927 42.3237 171.635 41.7184C172.05 41.3638 172.599 41.123 173.126 40.9537C173.651 40.7845 174.229 40.7422 174.759 41.3198C174.361 41.6648 174.001 41.9788 173.528 42.3904C174.403 42.3693 175.122 42.3514 175.941 42.3318ZM175.912 43.0559C174.784 43.0917 173.752 43.1096 172.723 43.1714C172.53 43.1828 172.307 43.3325 172.163 43.4822C171.405 44.2729 170.895 45.2166 170.651 46.2855C170.566 46.663 170.551 47.0812 170.614 47.4635C170.745 48.2559 171.309 48.5683 172.029 48.2315C174.216 47.2097 175.314 45.3597 175.91 43.0559H175.912Z" fill="white"/>
<path d="M179.303 49.8268C179.248 49.8073 179.106 49.7862 178.978 49.7032C178.739 49.5437 178.452 49.4054 178.492 48.875C178.531 48.3658 178.83 48.3039 179.077 48.2128C179.206 48.1656 179.356 48.2047 179.492 48.2502C179.851 48.3723 180.091 48.727 180.07 49.0703C180.048 49.4461 179.726 49.8008 179.303 49.8285V49.8268Z" fill="white"/>
<path fill-rule="evenodd" clip-rule="evenodd" d="M205.324 74.061H112.415V73.2426H204.51V1.84346H4.19429V73.241H99.9024V74.061H3.38184V1.02344H205.324V74.061Z" fill="white"/>
<path d="M109.169 71.2832C108.957 71.044 108.739 70.8845 108.52 70.7853C107.462 70.3021 106.379 71.2083 105.895 71.3287C105.304 71.2165 103.779 70.0011 102.624 71.4589C101.921 72.3456 102.695 74.1858 102.933 74.7618C103.17 75.3377 103.677 76.9127 103.732 77.518C103.802 78.2973 104.648 78.6585 105 78.0061C105.418 77.23 105.441 76.4978 106.029 76.436C106.62 76.4669 106.681 77.1958 107.14 77.9491C107.526 78.582 108.353 78.1769 108.381 77.3943C108.403 76.7874 108.828 75.1881 109.033 74.5991C109.048 74.5584 109.064 74.5096 109.083 74.4575C109.327 73.753 109.865 72.0739 109.169 71.2848V71.2832Z" fill="#C9ACC9"/>
<path fill-rule="evenodd" clip-rule="evenodd" d="M112.498 77.0063H202.617V3.96875H0.674805V77.0063H99.6699L99.6521 76.1863H1.48887V4.78877H201.805V76.1879H112.472L112.498 77.0063Z" fill="white"/>
</svg>
